<?xml version="1.0" encoding="UTF-8"?>
<svg id="_レイヤー_2" data-name="レイヤー 2" xmlns="http://www.w3.org/2000/svg" viewBox="0 0 16 16">
  <defs>
    <style>
      .cls-1 {
        fill: #fff;
      }

      .cls-2 {
        fill: #3b59e8;
      }

      .cls-3 {
        fill: #6cf;
      }
    </style>
  </defs>
  <g id="design">
    <g id="_16" data-name="16">
      <rect class="cls-1" width="16" height="16"/>
      <g id="icon">
        <path class="cls-2" d="M10.4,7.3c-1.22-.05-1.19-.89-1.06-1.41.05-.2.16-.38.31-.53.38-.38.57-.87.57-1.37s-.2-1.02-.6-1.4c-.77-.74-1.99-.7-2.74.06l-2.76,2.76c-.77.77-.76,2.03.04,2.78.77.73,1.98.68,2.73-.07.19-.19.38-.38.57-.57.11-.11.2-.24.36-.26.2-.03.45.03.63.13.22.13.3.37.3.61,0,.32-.14.42-.35.63-.66.66-1.32,1.32-1.99,1.99-.77.77-.76,2.03.04,2.78.77.73,1.98.68,2.73-.07l2.76-2.76c.38-.38.57-.88.57-1.37s-.19-.99-.57-1.37c-.34-.34-.77-.53-1.22-.56"/>
        <circle class="cls-3" cx="13.26" cy="6.27" r="1.52"/>
        <circle class="cls-3" cx="2.74" cy="9.58" r="1.52"/>
      </g>
    </g>
  </g>
</svg>